<svg width="213" height="213" viewBox="0 0 213 213" fill="none" xmlns="http://www.w3.org/2000/svg">
<g clip-path="url(#clip0)">
<mask id="mask0" mask-type="alpha" maskUnits="userSpaceOnUse" x="-61" y="0" width="252" height="213">
<path d="M190.691 0L-61 0.5V213H67.7318L190.691 0Z" fill="black"/>
</mask>
<g mask="url(#mask0)">
<path d="M107.135 142.152C107.135 139.007 106.446 136.224 105.067 133.804C103.77 131.384 101.012 129.005 96.7946 126.666C92.6583 124.246 86.3322 121.625 77.8162 118.801C70.1924 116.22 62.7714 113.276 55.5531 109.969C48.3348 106.662 41.8464 102.791 36.088 98.3543C30.3296 93.8373 25.7472 88.5541 22.3408 82.5047C18.9344 76.3746 17.2312 69.2362 17.2312 61.0896C17.2312 50.7652 20.2321 41.8926 26.2338 34.4719C32.2355 26.9706 40.4271 21.2034 50.8085 17.1705C61.1898 13.0568 72.9905 11 86.2105 11C99.2683 11 110.785 13.2181 120.761 17.6544C130.818 22.01 138.685 28.3015 144.362 36.5287C150.121 44.756 153 54.5965 153 66.0501H107.5C107.5 60.3233 105.676 55.6854 102.026 52.1364C98.4573 48.5873 92.8611 46.8128 85.2373 46.8128C77.7757 46.8128 72.1389 48.305 68.327 51.2894C64.5962 54.1932 62.7308 57.6615 62.7308 61.6945C62.7308 66.3728 65.5695 70.2444 71.2468 73.3095C76.9241 76.3746 84.3451 79.4396 93.5099 82.5047C112.407 88.5541 127.006 96.2168 137.306 105.493C147.607 114.688 152.757 126.827 152.757 141.91C152.757 158.042 146.796 170.424 134.873 179.054C122.951 187.685 106.933 192 86.8188 192C77.5729 192 68.4892 190.83 59.5677 188.491C50.7274 186.152 42.698 182.523 35.4797 177.602C28.3425 172.682 22.6247 166.391 18.3261 158.728C14.1087 150.985 12 141.749 12 131.021H57.7429C57.7429 140.62 60.1355 147.274 64.9206 150.985C69.7058 154.614 77.0052 156.429 86.8188 156.429C94.2804 156.429 99.5116 154.977 102.513 152.074C105.594 149.089 107.135 145.782 107.135 142.152Z" fill="#333333"/>
<path d="M95.4607 130.428C95.4607 127.299 94.7762 124.532 93.4072 122.126C92.1188 119.719 89.3808 117.353 85.1933 115.027C81.0863 112.62 74.805 110.013 66.3494 107.206C58.7797 104.639 51.4113 101.711 44.2442 98.4225C37.0771 95.1337 30.6347 91.2834 24.9172 86.8717C19.1996 82.3797 14.6497 77.1257 11.2675 71.1096C7.88525 65.0134 6.19413 57.9144 6.19413 49.8128C6.19413 39.5455 9.17371 30.7219 15.1329 23.3422C21.092 15.8824 29.2255 10.1471 39.5332 6.13636C49.841 2.04545 61.558 0 74.6842 0C87.6494 0 99.0846 2.20588 108.99 6.61765C118.975 10.9492 126.787 17.2059 132.424 25.3877C138.141 33.5695 141 43.3556 141 54.746H95.8231C95.8231 49.0508 94.0112 44.4385 90.3874 40.9091C86.8441 37.3797 81.2876 35.615 73.7179 35.615C66.3092 35.615 60.7124 37.0989 56.9275 40.0668C53.2232 42.9545 51.371 46.4037 51.371 50.4144C51.371 55.0668 54.1895 58.9171 59.8266 61.9652C65.4636 65.0134 72.832 68.0615 81.9318 71.1096C100.695 77.1257 115.19 84.746 125.418 93.9706C135.645 103.115 140.758 115.187 140.758 130.187C140.758 146.23 134.84 158.543 123.002 167.126C111.164 175.709 95.2594 180 75.2882 180C66.1079 180 57.0886 178.837 48.2304 176.511C39.4527 174.184 31.4803 170.575 24.3132 165.682C17.2266 160.789 11.5493 154.532 7.28128 146.912C3.09376 139.211 1 130.027 1 119.358H46.4185C46.4185 128.904 48.7941 135.521 53.5453 139.211C58.2965 142.821 65.5441 144.626 75.2882 144.626C82.6969 144.626 87.891 143.182 90.8706 140.294C93.9307 137.326 95.4607 134.037 95.4607 130.428Z" fill="white"/>
</g>
<rect x="200.065" y="2" width="14" height="234.131" transform="rotate(30 200.065 2)" fill="#9942CF"/>
</g>
<defs>
<clipPath id="clip0">
<rect width="213" height="213" fill="white"/>
</clipPath>
</defs>
</svg>
