<svg width="421" height="213" viewBox="0 0 421 213" fill="none" xmlns="http://www.w3.org/2000/svg">
<mask id="mask0" mask-type="alpha" maskUnits="userSpaceOnUse" x="78" y="0" width="272" height="213">
<path d="M349.691 0L78 0.5V213H226.732L349.691 0Z" fill="black"/>
</mask>
<g mask="url(#mask0)">
<path d="M118.365 51.6367C118.365 50.4941 118.116 49.4834 117.618 48.6045C117.149 47.7256 116.153 46.8613 114.63 46.0117C113.136 45.1328 110.851 44.1807 107.774 43.1553C105.021 42.2178 102.34 41.1484 99.7324 39.9473C97.125 38.7461 94.7812 37.3398 92.7012 35.7285C90.6211 34.0879 88.9658 32.1689 87.7354 29.9717C86.5049 27.7451 85.8896 25.1523 85.8896 22.1934C85.8896 18.4434 86.9736 15.2207 89.1416 12.5254C91.3096 9.80078 94.2686 7.70605 98.0186 6.24121C101.769 4.74707 106.031 4 110.807 4C115.523 4 119.684 4.80566 123.287 6.41699C126.92 7.99902 129.762 10.2842 131.812 13.2725C133.893 16.2607 134.933 19.835 134.933 23.9951H118.497C118.497 21.915 117.838 20.2305 116.52 18.9414C115.23 17.6523 113.209 17.0078 110.455 17.0078C107.76 17.0078 105.724 17.5498 104.347 18.6338C102.999 19.6885 102.325 20.9482 102.325 22.4131C102.325 24.1123 103.351 25.5186 105.401 26.6318C107.452 27.7451 110.133 28.8584 113.443 29.9717C120.27 32.1689 125.543 34.9521 129.264 38.3213C132.984 41.6611 134.845 46.0703 134.845 51.5488C134.845 57.4082 132.691 61.9053 128.385 65.04C124.078 68.1748 118.292 69.7422 111.026 69.7422C107.687 69.7422 104.405 69.3174 101.183 68.4678C97.9893 67.6182 95.0889 66.2998 92.4814 64.5127C89.9033 62.7256 87.8379 60.4404 86.2852 57.6572C84.7617 54.8447 84 51.4902 84 47.5938H100.523C100.523 51.0801 101.388 53.4971 103.116 54.8447C104.845 56.1631 107.481 56.8223 111.026 56.8223C113.722 56.8223 115.611 56.2949 116.695 55.2402C117.809 54.1562 118.365 52.9551 118.365 51.6367Z" fill="#E6E6E6"/>
<path d="M197.379 37.8379C197.379 44.459 196.163 50.1572 193.731 54.9326C191.329 59.6787 188.004 63.3408 183.756 65.9189C179.508 68.4678 174.645 69.7422 169.166 69.7422C163.629 69.7422 158.722 68.4678 154.444 65.9189C150.167 63.3408 146.812 59.6787 144.381 54.9326C141.979 50.1572 140.777 44.459 140.777 37.8379V35.9482C140.777 29.3271 141.979 23.6436 144.381 18.8975C146.783 14.1221 150.108 10.4453 154.356 7.86719C158.634 5.28906 163.541 4 169.078 4C174.557 4 179.42 5.28906 183.668 7.86719C187.945 10.4453 191.3 14.1221 193.731 18.8975C196.163 23.6436 197.379 29.3271 197.379 35.9482V37.8379ZM180.636 35.8604C180.636 29.7959 179.625 25.2256 177.604 22.1494C175.611 19.0439 172.77 17.4912 169.078 17.4912C161.402 17.4912 157.564 23.6143 157.564 35.8604V37.8379C157.564 43.7852 158.531 48.3555 160.465 51.5488C162.398 54.7129 165.299 56.2949 169.166 56.2949C172.857 56.2949 175.685 54.7129 177.647 51.5488C179.64 48.3555 180.636 43.7852 180.636 37.8379V35.8604Z" fill="#E6E6E6"/>
<path d="M226.427 4.87891L239.742 47.1543L253.014 4.87891H274.679V68.8633H258.111V56.5586L259.693 25.0059L245.147 68.8633H234.293L219.747 25.0059L221.329 56.5586V68.8633H204.806V4.87891H226.427Z" fill="#E6E6E6"/>
<path d="M328.292 68.8633H283.819V4.87891H328.424V18.1943H300.343V29.6641H323.941V42.4521H300.343V55.5918H328.292V68.8633Z" fill="#E6E6E6"/>
<path d="M85.8018 140.863V76.8789H106.632C112.491 76.8789 117.662 78.1973 122.145 80.834C126.656 83.4707 130.187 87.1182 132.735 91.7764C135.284 96.4053 136.559 101.752 136.559 107.816V109.97C136.559 116.005 135.284 121.352 132.735 126.01C130.187 130.668 126.686 134.315 122.232 136.952C117.779 139.56 112.667 140.863 106.896 140.863H85.8018ZM106.632 90.1943H102.325V127.592H106.896C111.056 127.592 114.234 126.142 116.432 123.241C118.658 120.341 119.771 115.917 119.771 109.97V107.729C119.771 96.0391 115.392 90.1943 106.632 90.1943Z" fill="#E6E6E6"/>
<path d="M188.458 140.863H143.985V76.8789H188.59V90.1943H160.509V101.664H184.107V114.452H160.509V127.592H188.458V140.863Z" fill="#E6E6E6"/>
<path d="M233.766 76.8789H252.223L230.865 140.863H212.848L191.622 76.8789H209.991L221.856 121.483L233.766 76.8789Z" fill="#E6E6E6"/>
<path d="M288.961 123.637C288.961 122.494 288.712 121.483 288.214 120.604C287.745 119.726 286.749 118.861 285.226 118.012C283.731 117.133 281.446 116.181 278.37 115.155C275.616 114.218 272.936 113.148 270.328 111.947C267.721 110.746 265.377 109.34 263.297 107.729C261.217 106.088 259.562 104.169 258.331 101.972C257.101 99.7451 256.485 97.1523 256.485 94.1934C256.485 90.4434 257.569 87.2207 259.737 84.5254C261.905 81.8008 264.864 79.7061 268.614 78.2412C272.364 76.7471 276.627 76 281.402 76C286.119 76 290.279 76.8057 293.883 78.417C297.516 79.999 300.357 82.2842 302.408 85.2725C304.488 88.2607 305.528 91.835 305.528 95.9951H289.093C289.093 93.915 288.434 92.2305 287.115 90.9414C285.826 89.6523 283.805 89.0078 281.051 89.0078C278.355 89.0078 276.319 89.5498 274.942 90.6338C273.595 91.6885 272.921 92.9482 272.921 94.4131C272.921 96.1123 273.946 97.5186 275.997 98.6318C278.048 99.7451 280.729 100.858 284.039 101.972C290.865 104.169 296.139 106.952 299.859 110.321C303.58 113.661 305.44 118.07 305.44 123.549C305.44 129.408 303.287 133.905 298.98 137.04C294.674 140.175 288.888 141.742 281.622 141.742C278.282 141.742 275.001 141.317 271.778 140.468C268.585 139.618 265.685 138.3 263.077 136.513C260.499 134.726 258.434 132.44 256.881 129.657C255.357 126.845 254.596 123.49 254.596 119.594H271.119C271.119 123.08 271.983 125.497 273.712 126.845C275.44 128.163 278.077 128.822 281.622 128.822C284.317 128.822 286.207 128.295 287.291 127.24C288.404 126.156 288.961 124.955 288.961 123.637Z" fill="#E6E6E6"/>
<path d="M85.8018 212.863V148.879H106.632C112.491 148.879 117.662 150.197 122.145 152.834C126.656 155.471 130.187 159.118 132.735 163.776C135.284 168.405 136.559 173.752 136.559 179.816V181.97C136.559 188.005 135.284 193.352 132.735 198.01C130.187 202.668 126.686 206.315 122.232 208.952C117.779 211.56 112.667 212.863 106.896 212.863H85.8018ZM106.632 162.194H102.325V199.592H106.896C111.056 199.592 114.234 198.142 116.432 195.241C118.658 192.341 119.771 187.917 119.771 181.97V179.729C119.771 168.039 115.392 162.194 106.632 162.194Z" fill="#E6E6E6"/>
<path d="M198.873 181.838C198.873 188.459 197.657 194.157 195.226 198.933C192.823 203.679 189.498 207.341 185.25 209.919C181.002 212.468 176.139 213.742 170.66 213.742C165.123 213.742 160.216 212.468 155.938 209.919C151.661 207.341 148.307 203.679 145.875 198.933C143.473 194.157 142.271 188.459 142.271 181.838V179.948C142.271 173.327 143.473 167.644 145.875 162.897C148.277 158.122 151.603 154.445 155.851 151.867C160.128 149.289 165.035 148 170.572 148C176.051 148 180.914 149.289 185.162 151.867C189.439 154.445 192.794 158.122 195.226 162.897C197.657 167.644 198.873 173.327 198.873 179.948V181.838ZM182.13 179.86C182.13 173.796 181.119 169.226 179.098 166.149C177.105 163.044 174.264 161.491 170.572 161.491C162.896 161.491 159.059 167.614 159.059 179.86V181.838C159.059 187.785 160.025 192.355 161.959 195.549C163.893 198.713 166.793 200.295 170.66 200.295C174.352 200.295 177.179 198.713 179.142 195.549C181.134 192.355 182.13 187.785 182.13 181.838V179.86Z" fill="#E6E6E6"/>
<path d="M114.09 47.7734C114.09 46.6309 113.841 45.6201 113.343 44.7412C112.875 43.8623 111.878 42.998 110.355 42.1484C108.861 41.2695 106.576 40.3174 103.5 39.292C100.746 38.3545 98.0649 37.2852 95.4575 36.084C92.8501 34.8828 90.5063 33.4766 88.4263 31.8652C86.3462 30.2246 84.6909 28.3057 83.4604 26.1084C82.23 23.8818 81.6147 21.2891 81.6147 18.3301C81.6147 14.5801 82.6987 11.3574 84.8667 8.66211C87.0347 5.9375 89.9937 3.84277 93.7437 2.37793C97.4937 0.883789 101.756 0.136719 106.532 0.136719C111.249 0.136719 115.409 0.942383 119.012 2.55371C122.645 4.13574 125.487 6.4209 127.538 9.40918C129.618 12.3975 130.658 15.9717 130.658 20.1318H114.222C114.222 18.0518 113.563 16.3672 112.245 15.0781C110.956 13.7891 108.934 13.1445 106.18 13.1445C103.485 13.1445 101.449 13.6865 100.072 14.7705C98.7241 15.8252 98.0503 17.085 98.0503 18.5498C98.0503 20.249 99.0757 21.6553 101.126 22.7686C103.177 23.8818 105.858 24.9951 109.168 26.1084C115.995 28.3057 121.268 31.0889 124.989 34.458C128.709 37.7979 130.57 42.207 130.57 47.6855C130.57 53.5449 128.417 58.042 124.11 61.1768C119.803 64.3115 114.017 65.8789 106.751 65.8789C103.412 65.8789 100.13 65.4541 96.9077 64.6045C93.7144 63.7549 90.814 62.4365 88.2065 60.6494C85.6284 58.8623 83.563 56.5771 82.0103 53.7939C80.4868 50.9814 79.7251 47.627 79.7251 43.7305H96.2485C96.2485 47.2168 97.1128 49.6338 98.8413 50.9814C100.57 52.2998 103.207 52.959 106.751 52.959C109.447 52.959 111.336 52.4316 112.42 51.377C113.534 50.293 114.09 49.0918 114.09 47.7734Z" fill="black"/>
<path d="M193.104 33.9746C193.104 40.5957 191.888 46.2939 189.457 51.0693C187.054 55.8154 183.729 59.4775 179.481 62.0557C175.233 64.6045 170.37 65.8789 164.891 65.8789C159.354 65.8789 154.447 64.6045 150.169 62.0557C145.892 59.4775 142.538 55.8154 140.106 51.0693C137.704 46.2939 136.502 40.5957 136.502 33.9746V32.085C136.502 25.4639 137.704 19.7803 140.106 15.0342C142.508 10.2588 145.833 6.58203 150.082 4.00391C154.359 1.42578 159.266 0.136719 164.803 0.136719C170.282 0.136719 175.145 1.42578 179.393 4.00391C183.67 6.58203 187.025 10.2588 189.457 15.0342C191.888 19.7803 193.104 25.4639 193.104 32.085V33.9746ZM176.361 31.9971C176.361 25.9326 175.35 21.3623 173.329 18.2861C171.336 15.1807 168.495 13.6279 164.803 13.6279C157.127 13.6279 153.29 19.751 153.29 31.9971V33.9746C153.29 39.9219 154.256 44.4922 156.19 47.6855C158.124 50.8496 161.024 52.4316 164.891 52.4316C168.583 52.4316 171.41 50.8496 173.373 47.6855C175.365 44.4922 176.361 39.9219 176.361 33.9746V31.9971Z" fill="black"/>
<path d="M222.152 1.01562L235.467 43.291L248.739 1.01562H270.404V65H253.836V52.6953L255.418 21.1426L240.873 65H230.018L215.472 21.1426L217.054 52.6953V65H200.531V1.01562H222.152Z" fill="black"/>
<path d="M324.017 65H279.544V1.01562H324.149V14.3311H296.068V25.8008H319.667V38.5889H296.068V51.7285H324.017V65Z" fill="black"/>
<path d="M81.5269 137V73.0156H102.357C108.216 73.0156 113.387 74.334 117.87 76.9707C122.381 79.6074 125.912 83.2549 128.46 87.9131C131.009 92.542 132.284 97.8887 132.284 103.953V106.106C132.284 112.142 131.009 117.488 128.46 122.146C125.912 126.805 122.411 130.452 117.958 133.089C113.504 135.696 108.392 137 102.621 137H81.5269ZM102.357 86.3311H98.0503V123.729H102.621C106.781 123.729 109.959 122.278 112.157 119.378C114.383 116.478 115.497 112.054 115.497 106.106V103.865C115.497 92.1758 111.117 86.3311 102.357 86.3311Z" fill="black"/>
<path d="M184.183 137H139.71V73.0156H184.315V86.3311H156.234V97.8008H179.833V110.589H156.234V123.729H184.183V137Z" fill="black"/>
<path d="M229.491 73.0156H247.948L226.59 137H208.573L187.347 73.0156H205.716L217.582 117.62L229.491 73.0156Z" fill="black"/>
<path d="M284.686 119.773C284.686 118.631 284.437 117.62 283.939 116.741C283.47 115.862 282.474 114.998 280.951 114.148C279.457 113.27 277.171 112.317 274.095 111.292C271.341 110.354 268.661 109.285 266.053 108.084C263.446 106.883 261.102 105.477 259.022 103.865C256.942 102.225 255.287 100.306 254.056 98.1084C252.826 95.8818 252.21 93.2891 252.21 90.3301C252.21 86.5801 253.294 83.3574 255.462 80.6621C257.63 77.9375 260.589 75.8428 264.339 74.3779C268.089 72.8838 272.352 72.1367 277.127 72.1367C281.844 72.1367 286.004 72.9424 289.608 74.5537C293.241 76.1357 296.083 78.4209 298.133 81.4092C300.213 84.3975 301.253 87.9717 301.253 92.1318H284.818C284.818 90.0518 284.159 88.3672 282.84 87.0781C281.551 85.7891 279.53 85.1445 276.776 85.1445C274.081 85.1445 272.044 85.6865 270.667 86.7705C269.32 87.8252 268.646 89.085 268.646 90.5498C268.646 92.249 269.671 93.6553 271.722 94.7686C273.773 95.8818 276.454 96.9951 279.764 98.1084C286.59 100.306 291.864 103.089 295.584 106.458C299.305 109.798 301.166 114.207 301.166 119.686C301.166 125.545 299.012 130.042 294.706 133.177C290.399 136.312 284.613 137.879 277.347 137.879C274.007 137.879 270.726 137.454 267.503 136.604C264.31 135.755 261.41 134.437 258.802 132.649C256.224 130.862 254.159 128.577 252.606 125.794C251.083 122.981 250.321 119.627 250.321 115.73H266.844C266.844 119.217 267.708 121.634 269.437 122.981C271.166 124.3 273.802 124.959 277.347 124.959C280.042 124.959 281.932 124.432 283.016 123.377C284.129 122.293 284.686 121.092 284.686 119.773Z" fill="black"/>
<path d="M81.5269 209V145.016H102.357C108.216 145.016 113.387 146.334 117.87 148.971C122.381 151.607 125.912 155.255 128.46 159.913C131.009 164.542 132.284 169.889 132.284 175.953V178.106C132.284 184.142 131.009 189.488 128.46 194.146C125.912 198.805 122.411 202.452 117.958 205.089C113.504 207.696 108.392 209 102.621 209H81.5269ZM102.357 158.331H98.0503V195.729H102.621C106.781 195.729 109.959 194.278 112.157 191.378C114.383 188.478 115.497 184.054 115.497 178.106V175.865C115.497 164.176 111.117 158.331 102.357 158.331Z" fill="black"/>
<path d="M194.598 177.975C194.598 184.596 193.382 190.294 190.951 195.069C188.548 199.815 185.223 203.478 180.975 206.056C176.727 208.604 171.864 209.879 166.385 209.879C160.848 209.879 155.941 208.604 151.664 206.056C147.386 203.478 144.032 199.815 141.6 195.069C139.198 190.294 137.997 184.596 137.997 177.975V176.085C137.997 169.464 139.198 163.78 141.6 159.034C144.002 154.259 147.328 150.582 151.576 148.004C155.853 145.426 160.76 144.137 166.297 144.137C171.776 144.137 176.639 145.426 180.887 148.004C185.165 150.582 188.519 154.259 190.951 159.034C193.382 163.78 194.598 169.464 194.598 176.085V177.975ZM177.855 175.997C177.855 169.933 176.844 165.362 174.823 162.286C172.831 159.181 169.989 157.628 166.297 157.628C158.622 157.628 154.784 163.751 154.784 175.997V177.975C154.784 183.922 155.75 188.492 157.684 191.686C159.618 194.85 162.518 196.432 166.385 196.432C170.077 196.432 172.904 194.85 174.867 191.686C176.859 188.492 177.855 183.922 177.855 177.975V175.997Z" fill="black"/>
</g>
<path d="M355 57L365 47L421 103L365 159L355 149L401 103L355 57Z" fill="#9942CF"/>
<path d="M371 8L359 1L242 204L254 211L371 8Z" fill="#9942CF"/>
<path d="M66 57L56 47L0 103L56 159L66 149L20 103L66 57Z" fill="#9942CF"/>
</svg>
